<?xml version="1.0" encoding="UTF-8" standalone="no"?>
<!DOCTYPE svg PUBLIC "-//W3C//DTD SVG 1.1//EN"
 "http://www.w3.org/Graphics/SVG/1.1/DTD/svg11.dtd">
<!-- Generated by graphviz version 5.0.0 (20220707.1540)
 -->
<!-- Title: dependencies Pages: 1 -->
<svg width="1017pt" height="247pt"
 viewBox="0.00 0.00 1017.00 246.80" xmlns="http://www.w3.org/2000/svg" xmlns:xlink="http://www.w3.org/1999/xlink">
<g id="graph0" class="graph" transform="scale(1 1) rotate(0) translate(4 242.8)">
<title>dependencies</title>
<polygon fill="white" stroke="transparent" points="-4,4 -4,-242.8 1013,-242.8 1013,4 -4,4"/>
<text text-anchor="middle" x="504.5" y="-8.2" font-family="sans-serif" font-size="14.00">dependencies</text>
<g id="clust1" class="cluster">
<title>cluster_AuthModule</title>
<polygon fill="none" stroke="black" stroke-dasharray="1,5" points="8,-32.8 8,-230.8 1001,-230.8 1001,-32.8 8,-32.8"/>
</g>
<g id="clust3" class="cluster">
<title>cluster_AuthModule_imports</title>
<polygon fill="none" stroke="black" points="763,-40.8 763,-92.8 993,-92.8 993,-40.8 763,-40.8"/>
</g>
<g id="clust4" class="cluster">
<title>cluster_AuthModule_exports</title>
<polygon fill="none" stroke="black" points="471,-170.8 471,-222.8 577,-222.8 577,-170.8 471,-170.8"/>
</g>
<g id="clust6" class="cluster">
<title>cluster_AuthModule_providers</title>
<polygon fill="none" stroke="black" points="16,-40.8 16,-92.8 755,-92.8 755,-40.8 16,-40.8"/>
</g>
<!-- DatabaseModule -->
<g id="node1" class="node">
<title>DatabaseModule</title>
<polygon fill="#8dd3c7" stroke="black" points="985.36,-84.8 982.36,-88.8 961.36,-88.8 958.36,-84.8 874.64,-84.8 874.64,-48.8 985.36,-48.8 985.36,-84.8"/>
<text text-anchor="middle" x="930" y="-62.6" font-family="Times,serif" font-size="14.00">DatabaseModule</text>
</g>
<!-- AuthModule -->
<g id="node3" class="node">
<title>AuthModule</title>
<polygon fill="#8dd3c7" stroke="black" points="567.55,-149.8 564.55,-153.8 543.55,-153.8 540.55,-149.8 480.45,-149.8 480.45,-113.8 567.55,-113.8 567.55,-149.8"/>
<text text-anchor="middle" x="524" y="-127.6" font-family="Times,serif" font-size="14.00">AuthModule</text>
</g>
<!-- DatabaseModule&#45;&gt;AuthModule -->
<g id="edge1" class="edge">
<title>DatabaseModule&#45;&gt;AuthModule</title>
<path fill="none" stroke="black" d="M930,-85.09C930,-107.01 930,-140.8 930,-140.8 930,-140.8 577.83,-140.8 577.83,-140.8"/>
<polygon fill="black" stroke="black" points="577.83,-137.3 567.83,-140.8 577.83,-144.3 577.83,-137.3"/>
</g>
<!-- MailModule -->
<g id="node2" class="node">
<title>MailModule</title>
<polygon fill="#8dd3c7" stroke="black" points="856.99,-84.8 853.99,-88.8 832.99,-88.8 829.99,-84.8 771.01,-84.8 771.01,-48.8 856.99,-48.8 856.99,-84.8"/>
<text text-anchor="middle" x="814" y="-62.6" font-family="Times,serif" font-size="14.00">MailModule</text>
</g>
<!-- MailModule&#45;&gt;AuthModule -->
<g id="edge2" class="edge">
<title>MailModule&#45;&gt;AuthModule</title>
<path fill="none" stroke="black" d="M814,-84.91C814,-104.14 814,-131.8 814,-131.8 814,-131.8 577.73,-131.8 577.73,-131.8"/>
<polygon fill="black" stroke="black" points="577.73,-128.3 567.73,-131.8 577.73,-135.3 577.73,-128.3"/>
</g>
<!-- AuthService  -->
<g id="node4" class="node">
<title>AuthService </title>
<polygon fill="#fb8072" stroke="black" points="568.98,-214.8 479.02,-214.8 479.02,-178.8 568.98,-178.8 568.98,-214.8"/>
<text text-anchor="middle" x="524" y="-192.6" font-family="Times,serif" font-size="14.00">AuthService </text>
</g>
<!-- AuthModule&#45;&gt;AuthService  -->
<g id="edge3" class="edge">
<title>AuthModule&#45;&gt;AuthService </title>
<path fill="none" stroke="black" stroke-dasharray="5,2" d="M524,-149.91C524,-149.91 524,-168.79 524,-168.79"/>
<polygon fill="black" stroke="black" points="520.5,-168.79 524,-178.79 527.5,-168.79 520.5,-168.79"/>
</g>
<!-- AuthService -->
<g id="node5" class="node">
<title>AuthService</title>
<ellipse fill="#fdb462" stroke="black" cx="688" cy="-66.8" rx="59.11" ry="18"/>
<text text-anchor="middle" x="688" y="-62.6" font-family="Times,serif" font-size="14.00">AuthService</text>
</g>
<!-- AuthService&#45;&gt;AuthModule -->
<g id="edge4" class="edge">
<title>AuthService&#45;&gt;AuthModule</title>
<path fill="none" stroke="black" d="M688,-84.83C688,-101.2 688,-122.8 688,-122.8 688,-122.8 577.95,-122.8 577.95,-122.8"/>
<polygon fill="black" stroke="black" points="577.95,-119.3 567.95,-122.8 577.95,-126.3 577.95,-119.3"/>
</g>
<!-- JwtRefreshStrategy -->
<g id="node6" class="node">
<title>JwtRefreshStrategy</title>
<ellipse fill="#fdb462" stroke="black" cx="524" cy="-66.8" rx="86.83" ry="18"/>
<text text-anchor="middle" x="524" y="-62.6" font-family="Times,serif" font-size="14.00">JwtRefreshStrategy</text>
</g>
<!-- JwtRefreshStrategy&#45;&gt;AuthModule -->
<g id="edge5" class="edge">
<title>JwtRefreshStrategy&#45;&gt;AuthModule</title>
<path fill="none" stroke="black" d="M524,-84.91C524,-84.91 524,-103.79 524,-103.79"/>
<polygon fill="black" stroke="black" points="520.5,-103.79 524,-113.79 527.5,-103.79 520.5,-103.79"/>
</g>
<!-- JwtStrategy -->
<g id="node7" class="node">
<title>JwtStrategy</title>
<ellipse fill="#fdb462" stroke="black" cx="363" cy="-66.8" rx="56.77" ry="18"/>
<text text-anchor="middle" x="363" y="-62.6" font-family="Times,serif" font-size="14.00">JwtStrategy</text>
</g>
<!-- JwtStrategy&#45;&gt;AuthModule -->
<g id="edge6" class="edge">
<title>JwtStrategy&#45;&gt;AuthModule</title>
<path fill="none" stroke="black" d="M363,-84.83C363,-101.2 363,-122.8 363,-122.8 363,-122.8 470.43,-122.8 470.43,-122.8"/>
<polygon fill="black" stroke="black" points="470.43,-126.3 480.43,-122.8 470.43,-119.3 470.43,-126.3"/>
</g>
<!-- LocalStrategy -->
<g id="node8" class="node">
<title>LocalStrategy</title>
<ellipse fill="#fdb462" stroke="black" cx="223" cy="-66.8" rx="65.4" ry="18"/>
<text text-anchor="middle" x="223" y="-62.6" font-family="Times,serif" font-size="14.00">LocalStrategy</text>
</g>
<!-- LocalStrategy&#45;&gt;AuthModule -->
<g id="edge7" class="edge">
<title>LocalStrategy&#45;&gt;AuthModule</title>
<path fill="none" stroke="black" d="M223,-84.91C223,-104.14 223,-131.8 223,-131.8 223,-131.8 470.23,-131.8 470.23,-131.8"/>
<polygon fill="black" stroke="black" points="470.23,-135.3 480.23,-131.8 470.23,-128.3 470.23,-135.3"/>
</g>
<!-- UserService -->
<g id="node9" class="node">
<title>UserService</title>
<ellipse fill="#fdb462" stroke="black" cx="82" cy="-66.8" rx="58.46" ry="18"/>
<text text-anchor="middle" x="82" y="-62.6" font-family="Times,serif" font-size="14.00">UserService</text>
</g>
<!-- UserService&#45;&gt;AuthModule -->
<g id="edge8" class="edge">
<title>UserService&#45;&gt;AuthModule</title>
<path fill="none" stroke="black" d="M82,-85.09C82,-107.01 82,-140.8 82,-140.8 82,-140.8 470.41,-140.8 470.41,-140.8"/>
<polygon fill="black" stroke="black" points="470.41,-144.3 480.41,-140.8 470.41,-137.3 470.41,-144.3"/>
</g>
</g>
</svg>
