<?xml version="1.0" encoding="UTF-8" standalone="no"?>
<!DOCTYPE svg PUBLIC "-//W3C//DTD SVG 1.1//EN"
 "http://www.w3.org/Graphics/SVG/1.1/DTD/svg11.dtd">
<!-- Generated by graphviz version 5.0.0 (20220707.1540)
 -->
<!-- Title: dependencies Pages: 1 -->
<svg width="1020pt" height="174pt"
 viewBox="0.00 0.00 1020.00 173.80" xmlns="http://www.w3.org/2000/svg" xmlns:xlink="http://www.w3.org/1999/xlink">
<g id="graph0" class="graph" transform="scale(1 1) rotate(0) translate(4 169.8)">
<title>dependencies</title>
<polygon fill="white" stroke="transparent" points="-4,4 -4,-169.8 1016,-169.8 1016,4 -4,4"/>
<text text-anchor="middle" x="506" y="-8.2" font-family="sans-serif" font-size="14.00">dependencies</text>
<g id="clust1" class="cluster">
<title>cluster_AppModule</title>
<polygon fill="none" stroke="black" stroke-dasharray="1,5" points="8,-32.8 8,-157.8 1004,-157.8 1004,-32.8 8,-32.8"/>
</g>
<g id="clust3" class="cluster">
<title>cluster_AppModule_imports</title>
<polygon fill="none" stroke="black" points="556,-40.8 556,-92.8 996,-92.8 996,-40.8 556,-40.8"/>
</g>
<g id="clust6" class="cluster">
<title>cluster_AppModule_providers</title>
<polygon fill="none" stroke="black" points="16,-40.8 16,-92.8 548,-92.8 548,-40.8 16,-40.8"/>
</g>
<!-- AuthModule -->
<g id="node1" class="node">
<title>AuthModule</title>
<polygon fill="#8dd3c7" stroke="black" points="987.55,-84.8 984.55,-88.8 963.55,-88.8 960.55,-84.8 900.45,-84.8 900.45,-48.8 987.55,-48.8 987.55,-84.8"/>
<text text-anchor="middle" x="944" y="-62.6" font-family="Times,serif" font-size="14.00">AuthModule</text>
</g>
<!-- AppModule -->
<g id="node5" class="node">
<title>AppModule</title>
<polygon fill="#8dd3c7" stroke="black" points="586.66,-149.8 583.66,-153.8 562.66,-153.8 559.66,-149.8 503.34,-149.8 503.34,-113.8 586.66,-113.8 586.66,-149.8"/>
<text text-anchor="middle" x="545" y="-127.6" font-family="Times,serif" font-size="14.00">AppModule</text>
</g>
<!-- AuthModule&#45;&gt;AppModule -->
<g id="edge1" class="edge">
<title>AuthModule&#45;&gt;AppModule</title>
<path fill="none" stroke="black" d="M944,-85.09C944,-107.01 944,-140.8 944,-140.8 944,-140.8 596.95,-140.8 596.95,-140.8"/>
<polygon fill="black" stroke="black" points="596.95,-137.3 586.95,-140.8 596.95,-144.3 596.95,-137.3"/>
</g>
<!-- DatabaseModule -->
<g id="node2" class="node">
<title>DatabaseModule</title>
<polygon fill="#8dd3c7" stroke="black" points="882.36,-84.8 879.36,-88.8 858.36,-88.8 855.36,-84.8 771.64,-84.8 771.64,-48.8 882.36,-48.8 882.36,-84.8"/>
<text text-anchor="middle" x="827" y="-62.6" font-family="Times,serif" font-size="14.00">DatabaseModule</text>
</g>
<!-- DatabaseModule&#45;&gt;AppModule -->
<g id="edge2" class="edge">
<title>DatabaseModule&#45;&gt;AppModule</title>
<path fill="none" stroke="black" d="M827,-84.91C827,-104.14 827,-131.8 827,-131.8 827,-131.8 596.91,-131.8 596.91,-131.8"/>
<polygon fill="black" stroke="black" points="596.91,-128.3 586.91,-131.8 596.91,-135.3 596.91,-128.3"/>
</g>
<!-- MailModule -->
<g id="node3" class="node">
<title>MailModule</title>
<polygon fill="#8dd3c7" stroke="black" points="753.99,-84.8 750.99,-88.8 729.99,-88.8 726.99,-84.8 668.01,-84.8 668.01,-48.8 753.99,-48.8 753.99,-84.8"/>
<text text-anchor="middle" x="711" y="-62.6" font-family="Times,serif" font-size="14.00">MailModule</text>
</g>
<!-- MailModule&#45;&gt;AppModule -->
<g id="edge3" class="edge">
<title>MailModule&#45;&gt;AppModule</title>
<path fill="none" stroke="black" d="M711,-84.83C711,-101.2 711,-122.8 711,-122.8 711,-122.8 596.89,-122.8 596.89,-122.8"/>
<polygon fill="black" stroke="black" points="596.89,-119.3 586.89,-122.8 596.89,-126.3 596.89,-119.3"/>
</g>
<!-- UserModule -->
<g id="node4" class="node">
<title>UserModule</title>
<polygon fill="#8dd3c7" stroke="black" points="649.99,-84.8 646.99,-88.8 625.99,-88.8 622.99,-84.8 564.01,-84.8 564.01,-48.8 649.99,-48.8 649.99,-84.8"/>
<text text-anchor="middle" x="607" y="-62.6" font-family="Times,serif" font-size="14.00">UserModule</text>
</g>
<!-- UserModule&#45;&gt;AppModule -->
<g id="edge4" class="edge">
<title>UserModule&#45;&gt;AppModule</title>
<path fill="none" stroke="black" d="M575.42,-84.91C575.42,-84.91 575.42,-103.79 575.42,-103.79"/>
<polygon fill="black" stroke="black" points="571.92,-103.79 575.42,-113.79 578.92,-103.79 571.92,-103.79"/>
</g>
<!-- AppService -->
<g id="node6" class="node">
<title>AppService</title>
<ellipse fill="#fdb462" stroke="black" cx="483" cy="-66.8" rx="56.75" ry="18"/>
<text text-anchor="middle" x="483" y="-62.6" font-family="Times,serif" font-size="14.00">AppService</text>
</g>
<!-- AppService&#45;&gt;AppModule -->
<g id="edge5" class="edge">
<title>AppService&#45;&gt;AppModule</title>
<path fill="none" stroke="black" d="M521.4,-80.27C521.4,-80.27 521.4,-103.66 521.4,-103.66"/>
<polygon fill="black" stroke="black" points="517.9,-103.66 521.4,-113.66 524.9,-103.66 517.9,-103.66"/>
</g>
<!-- AuthService -->
<g id="node7" class="node">
<title>AuthService</title>
<ellipse fill="#fdb462" stroke="black" cx="349" cy="-66.8" rx="59.11" ry="18"/>
<text text-anchor="middle" x="349" y="-62.6" font-family="Times,serif" font-size="14.00">AuthService</text>
</g>
<!-- AuthService&#45;&gt;AppModule -->
<g id="edge6" class="edge">
<title>AuthService&#45;&gt;AppModule</title>
<path fill="none" stroke="black" d="M349,-84.83C349,-101.2 349,-122.8 349,-122.8 349,-122.8 492.95,-122.8 492.95,-122.8"/>
<polygon fill="black" stroke="black" points="492.95,-126.3 502.95,-122.8 492.95,-119.3 492.95,-126.3"/>
</g>
<!-- JwtStrategy -->
<g id="node8" class="node">
<title>JwtStrategy</title>
<ellipse fill="#fdb462" stroke="black" cx="215" cy="-66.8" rx="56.77" ry="18"/>
<text text-anchor="middle" x="215" y="-62.6" font-family="Times,serif" font-size="14.00">JwtStrategy</text>
</g>
<!-- JwtStrategy&#45;&gt;AppModule -->
<g id="edge7" class="edge">
<title>JwtStrategy&#45;&gt;AppModule</title>
<path fill="none" stroke="black" d="M215,-84.91C215,-104.14 215,-131.8 215,-131.8 215,-131.8 493.21,-131.8 493.21,-131.8"/>
<polygon fill="black" stroke="black" points="493.21,-135.3 503.21,-131.8 493.21,-128.3 493.21,-135.3"/>
</g>
<!-- UserService -->
<g id="node9" class="node">
<title>UserService</title>
<ellipse fill="#fdb462" stroke="black" cx="82" cy="-66.8" rx="58.46" ry="18"/>
<text text-anchor="middle" x="82" y="-62.6" font-family="Times,serif" font-size="14.00">UserService</text>
</g>
<!-- UserService&#45;&gt;AppModule -->
<g id="edge8" class="edge">
<title>UserService&#45;&gt;AppModule</title>
<path fill="none" stroke="black" d="M82,-85.09C82,-107.01 82,-140.8 82,-140.8 82,-140.8 493.1,-140.8 493.1,-140.8"/>
<polygon fill="black" stroke="black" points="493.1,-144.3 503.1,-140.8 493.1,-137.3 493.1,-144.3"/>
</g>
</g>
</svg>
