<?xml version="1.0" encoding="UTF-8" standalone="no"?>
<!DOCTYPE svg PUBLIC "-//W3C//DTD SVG 1.1//EN"
 "http://www.w3.org/Graphics/SVG/1.1/DTD/svg11.dtd">
<!-- Generated by graphviz version 5.0.0 (20220707.1540)
 -->
<!-- Title: dependencies Pages: 1 -->
<svg width="1564pt" height="250pt"
 viewBox="0.00 0.00 1564.00 249.80" xmlns="http://www.w3.org/2000/svg" xmlns:xlink="http://www.w3.org/1999/xlink">
<g id="graph0" class="graph" transform="scale(1 1) rotate(0) translate(4 245.8)">
<title>dependencies</title>
<polygon fill="white" stroke="transparent" points="-4,4 -4,-245.8 1560,-245.8 1560,4 -4,4"/>
<text text-anchor="middle" x="778" y="-8.2" font-family="sans-serif" font-size="14.00">dependencies</text>
<g id="clust1" class="cluster">
<title>cluster_AppModule</title>
<polygon fill="none" stroke="black" stroke-dasharray="1,5" points="484,-32.8 484,-233.8 1280,-233.8 1280,-32.8 484,-32.8"/>
</g>
<g id="clust3" class="cluster">
<title>cluster_AppModule_imports</title>
<polygon fill="none" stroke="black" points="1032,-40.8 1032,-168.8 1262,-168.8 1262,-40.8 1032,-40.8"/>
</g>
<g id="clust6" class="cluster">
<title>cluster_AppModule_providers</title>
<polygon fill="none" stroke="black" points="492,-40.8 492,-92.8 1024,-92.8 1024,-40.8 492,-40.8"/>
</g>
<g id="clust7" class="cluster">
<title>cluster_AuthModule</title>
<polygon fill="none" stroke="black" stroke-dasharray="1,5" points="8,-32.8 8,-100.8 476,-100.8 476,-32.8 8,-32.8"/>
</g>
<g id="clust10" class="cluster">
<title>cluster_AuthModule_exports</title>
<polygon fill="none" stroke="black" points="362,-40.8 362,-92.8 468,-92.8 468,-40.8 362,-40.8"/>
</g>
<g id="clust12" class="cluster">
<title>cluster_AuthModule_providers</title>
<polygon fill="none" stroke="black" points="16,-40.8 16,-92.8 354,-92.8 354,-40.8 16,-40.8"/>
</g>
<g id="clust19" class="cluster">
<title>cluster_MailModule</title>
<polygon fill="none" stroke="black" stroke-dasharray="1,5" points="1288,-108.8 1288,-176.8 1548,-176.8 1548,-108.8 1288,-108.8"/>
</g>
<g id="clust22" class="cluster">
<title>cluster_MailModule_exports</title>
<polygon fill="none" stroke="black" points="1436,-116.8 1436,-168.8 1540,-168.8 1540,-116.8 1436,-116.8"/>
</g>
<g id="clust24" class="cluster">
<title>cluster_MailModule_providers</title>
<polygon fill="none" stroke="black" points="1296,-116.8 1296,-168.8 1428,-168.8 1428,-116.8 1296,-116.8"/>
</g>
<!-- AuthModule -->
<g id="node1" class="node">
<title>AuthModule</title>
<polygon fill="#8dd3c7" stroke="black" points="1127.55,-160.8 1124.55,-164.8 1103.55,-164.8 1100.55,-160.8 1040.45,-160.8 1040.45,-124.8 1127.55,-124.8 1127.55,-160.8"/>
<text text-anchor="middle" x="1084" y="-138.6" font-family="Times,serif" font-size="14.00">AuthModule</text>
</g>
<!-- AppModule -->
<g id="node5" class="node">
<title>AppModule</title>
<polygon fill="#8dd3c7" stroke="black" points="1077.66,-225.8 1074.66,-229.8 1053.66,-229.8 1050.66,-225.8 994.34,-225.8 994.34,-189.8 1077.66,-189.8 1077.66,-225.8"/>
<text text-anchor="middle" x="1036" y="-203.6" font-family="Times,serif" font-size="14.00">AppModule</text>
</g>
<!-- AuthModule&#45;&gt;AppModule -->
<g id="edge1" class="edge">
<title>AuthModule&#45;&gt;AppModule</title>
<path fill="none" stroke="black" d="M1059.03,-160.91C1059.03,-160.91 1059.03,-179.79 1059.03,-179.79"/>
<polygon fill="black" stroke="black" points="1055.53,-179.79 1059.03,-189.79 1062.53,-179.79 1055.53,-179.79"/>
</g>
<!-- AuthService  -->
<g id="node10" class="node">
<title>AuthService </title>
<polygon fill="#fb8072" stroke="black" points="459.98,-84.8 370.02,-84.8 370.02,-48.8 459.98,-48.8 459.98,-84.8"/>
<text text-anchor="middle" x="415" y="-62.6" font-family="Times,serif" font-size="14.00">AuthService </text>
</g>
<!-- AuthModule&#45;&gt;AuthService  -->
<g id="edge11" class="edge">
<title>AuthModule&#45;&gt;AuthService </title>
<path fill="none" stroke="black" stroke-dasharray="5,2" d="M1040.36,-145.8C891.82,-145.8 415,-145.8 415,-145.8 415,-145.8 415,-95.12 415,-95.12"/>
<polygon fill="black" stroke="black" points="418.5,-95.12 415,-85.12 411.5,-95.12 418.5,-95.12"/>
</g>
<!-- DatabaseModule -->
<g id="node2" class="node">
<title>DatabaseModule</title>
<polygon fill="#8dd3c7" stroke="black" points="1150.36,-84.8 1147.36,-88.8 1126.36,-88.8 1123.36,-84.8 1039.64,-84.8 1039.64,-48.8 1150.36,-48.8 1150.36,-84.8"/>
<text text-anchor="middle" x="1095" y="-62.6" font-family="Times,serif" font-size="14.00">DatabaseModule</text>
</g>
<!-- DatabaseModule&#45;&gt;AuthModule -->
<g id="edge9" class="edge">
<title>DatabaseModule&#45;&gt;AuthModule</title>
<path fill="none" stroke="black" d="M1069.41,-84.81C1069.41,-84.81 1069.41,-114.65 1069.41,-114.65"/>
<polygon fill="black" stroke="black" points="1065.91,-114.65 1069.41,-124.65 1072.91,-114.65 1065.91,-114.65"/>
</g>
<!-- UserModule -->
<g id="node4" class="node">
<title>UserModule</title>
<polygon fill="#8dd3c7" stroke="black" points="1231.99,-160.8 1228.99,-164.8 1207.99,-164.8 1204.99,-160.8 1146.01,-160.8 1146.01,-124.8 1231.99,-124.8 1231.99,-160.8"/>
<text text-anchor="middle" x="1189" y="-138.6" font-family="Times,serif" font-size="14.00">UserModule</text>
</g>
<!-- DatabaseModule&#45;&gt;UserModule -->
<g id="edge19" class="edge">
<title>DatabaseModule&#45;&gt;UserModule</title>
<path fill="none" stroke="black" d="M1150.45,-66.8C1157.41,-66.8 1162.14,-66.8 1162.14,-66.8 1162.14,-66.8 1162.14,-114.79 1162.14,-114.79"/>
<polygon fill="black" stroke="black" points="1158.64,-114.79 1162.14,-124.79 1165.64,-114.79 1158.64,-114.79"/>
</g>
<!-- DatabaseModule&#45;&gt;AppModule -->
<g id="edge2" class="edge">
<title>DatabaseModule&#45;&gt;AppModule</title>
<path fill="none" stroke="black" d="M1039.59,-66.8C1032.63,-66.8 1027.9,-66.8 1027.9,-66.8 1027.9,-66.8 1027.9,-179.66 1027.9,-179.66"/>
<polygon fill="black" stroke="black" points="1024.4,-179.66 1027.9,-189.66 1031.4,-179.66 1024.4,-179.66"/>
</g>
<!-- MailModule -->
<g id="node3" class="node">
<title>MailModule</title>
<polygon fill="#8dd3c7" stroke="black" points="1253.99,-84.8 1250.99,-88.8 1229.99,-88.8 1226.99,-84.8 1168.01,-84.8 1168.01,-48.8 1253.99,-48.8 1253.99,-84.8"/>
<text text-anchor="middle" x="1211" y="-62.6" font-family="Times,serif" font-size="14.00">MailModule</text>
</g>
<!-- MailModule&#45;&gt;AuthModule -->
<g id="edge10" class="edge">
<title>MailModule&#45;&gt;AuthModule</title>
<path fill="none" stroke="black" d="M1200,-84.84C1200,-97.36 1200,-111.8 1200,-111.8 1200,-111.8 1098.59,-111.8 1098.59,-111.8 1098.59,-111.8 1098.59,-114.77 1098.59,-114.77"/>
<polygon fill="black" stroke="black" points="1095.09,-114.77 1098.59,-124.77 1102.09,-114.77 1095.09,-114.77"/>
</g>
<!-- MailModule&#45;&gt;AppModule -->
<g id="edge3" class="edge">
<title>MailModule&#45;&gt;AppModule</title>
<path fill="none" stroke="black" d="M1239.33,-84.83C1239.33,-124.08 1239.33,-213.8 1239.33,-213.8 1239.33,-213.8 1088.13,-213.8 1088.13,-213.8"/>
<polygon fill="black" stroke="black" points="1088.13,-210.3 1078.13,-213.8 1088.13,-217.3 1088.13,-210.3"/>
</g>
<!-- MailService  -->
<g id="node13" class="node">
<title>MailService </title>
<polygon fill="#fb8072" stroke="black" points="1531.92,-160.8 1444.08,-160.8 1444.08,-124.8 1531.92,-124.8 1531.92,-160.8"/>
<text text-anchor="middle" x="1488" y="-138.6" font-family="Times,serif" font-size="14.00">MailService </text>
</g>
<!-- MailModule&#45;&gt;MailService  -->
<g id="edge17" class="edge">
<title>MailModule&#45;&gt;MailService </title>
<path fill="none" stroke="black" stroke-dasharray="5,2" d="M1254.28,-66.8C1332.19,-66.8 1488,-66.8 1488,-66.8 1488,-66.8 1488,-114.79 1488,-114.79"/>
<polygon fill="black" stroke="black" points="1484.5,-114.79 1488,-124.79 1491.5,-114.79 1484.5,-114.79"/>
</g>
<!-- UserModule&#45;&gt;AppModule -->
<g id="edge4" class="edge">
<title>UserModule&#45;&gt;AppModule</title>
<path fill="none" stroke="black" d="M1189,-160.82C1189,-178.17 1189,-201.8 1189,-201.8 1189,-201.8 1087.81,-201.8 1087.81,-201.8"/>
<polygon fill="black" stroke="black" points="1087.81,-198.3 1077.81,-201.8 1087.81,-205.3 1087.81,-198.3"/>
</g>
<!-- AppService -->
<g id="node6" class="node">
<title>AppService</title>
<ellipse fill="#fdb462" stroke="black" cx="557" cy="-66.8" rx="56.75" ry="18"/>
<text text-anchor="middle" x="557" y="-62.6" font-family="Times,serif" font-size="14.00">AppService</text>
</g>
<!-- AppService&#45;&gt;AppModule -->
<g id="edge5" class="edge">
<title>AppService&#45;&gt;AppModule</title>
<path fill="none" stroke="black" d="M557,-84.89C557,-124.79 557,-216.8 557,-216.8 557,-216.8 984.33,-216.8 984.33,-216.8"/>
<polygon fill="black" stroke="black" points="984.33,-220.3 994.33,-216.8 984.33,-213.3 984.33,-220.3"/>
</g>
<!-- AuthService -->
<g id="node7" class="node">
<title>AuthService</title>
<ellipse fill="#fdb462" stroke="black" cx="691" cy="-66.8" rx="59.11" ry="18"/>
<text text-anchor="middle" x="691" y="-62.6" font-family="Times,serif" font-size="14.00">AuthService</text>
</g>
<!-- AuthService&#45;&gt;AuthModule -->
<g id="edge12" class="edge">
<title>AuthService&#45;&gt;AuthModule</title>
<path fill="none" stroke="black" d="M710.77,-83.96C710.77,-105.82 710.77,-140.8 710.77,-140.8 710.77,-140.8 1030.09,-140.8 1030.09,-140.8"/>
<polygon fill="black" stroke="black" points="1030.09,-144.3 1040.09,-140.8 1030.09,-137.3 1030.09,-144.3"/>
</g>
<!-- AuthService&#45;&gt;AppModule -->
<g id="edge6" class="edge">
<title>AuthService&#45;&gt;AppModule</title>
<path fill="none" stroke="black" d="M671.23,-83.81C671.23,-121.31 671.23,-207.8 671.23,-207.8 671.23,-207.8 984.16,-207.8 984.16,-207.8"/>
<polygon fill="black" stroke="black" points="984.16,-211.3 994.16,-207.8 984.16,-204.3 984.16,-211.3"/>
</g>
<!-- JwtStrategy -->
<g id="node8" class="node">
<title>JwtStrategy</title>
<ellipse fill="#fdb462" stroke="black" cx="825" cy="-66.8" rx="56.77" ry="18"/>
<text text-anchor="middle" x="825" y="-62.6" font-family="Times,serif" font-size="14.00">JwtStrategy</text>
</g>
<!-- JwtStrategy&#45;&gt;AuthModule -->
<g id="edge14" class="edge">
<title>JwtStrategy&#45;&gt;AuthModule</title>
<path fill="none" stroke="black" d="M843.88,-83.86C843.88,-104.29 843.88,-135.8 843.88,-135.8 843.88,-135.8 1030.24,-135.8 1030.24,-135.8"/>
<polygon fill="black" stroke="black" points="1030.24,-139.3 1040.24,-135.8 1030.24,-132.3 1030.24,-139.3"/>
</g>
<!-- JwtStrategy&#45;&gt;AppModule -->
<g id="edge7" class="edge">
<title>JwtStrategy&#45;&gt;AppModule</title>
<path fill="none" stroke="black" d="M806.12,-83.79C806.12,-119.44 806.12,-198.8 806.12,-198.8 806.12,-198.8 984.1,-198.8 984.1,-198.8"/>
<polygon fill="black" stroke="black" points="984.1,-202.3 994.1,-198.8 984.1,-195.3 984.1,-202.3"/>
</g>
<!-- UserService -->
<g id="node9" class="node">
<title>UserService</title>
<ellipse fill="#fdb462" stroke="black" cx="958" cy="-66.8" rx="58.46" ry="18"/>
<text text-anchor="middle" x="958" y="-62.6" font-family="Times,serif" font-size="14.00">UserService</text>
</g>
<!-- UserService&#45;&gt;AuthModule -->
<g id="edge16" class="edge">
<title>UserService&#45;&gt;AuthModule</title>
<path fill="none" stroke="black" d="M1010.71,-74.65C1010.71,-91.74 1010.71,-130.8 1010.71,-130.8 1010.71,-130.8 1030.1,-130.8 1030.1,-130.8"/>
<polygon fill="black" stroke="black" points="1030.1,-134.3 1040.1,-130.8 1030.1,-127.3 1030.1,-134.3"/>
</g>
<!-- UserService&#45;&gt;UserModule -->
<g id="edge20" class="edge">
<title>UserService&#45;&gt;UserModule</title>
<path fill="none" stroke="black" d="M999.68,-79.45C999.68,-88.39 999.68,-98.8 999.68,-98.8 999.68,-98.8 1156.29,-98.8 1156.29,-98.8 1156.29,-98.8 1156.29,-114.65 1156.29,-114.65"/>
<polygon fill="black" stroke="black" points="1152.79,-114.65 1156.29,-124.65 1159.79,-114.65 1152.79,-114.65"/>
</g>
<!-- UserService&#45;&gt;AppModule -->
<g id="edge8" class="edge">
<title>UserService&#45;&gt;AppModule</title>
<path fill="none" stroke="black" d="M1005.2,-77.4C1005.2,-77.4 1005.2,-179.71 1005.2,-179.71"/>
<polygon fill="black" stroke="black" points="1001.7,-179.71 1005.2,-189.71 1008.7,-179.71 1001.7,-179.71"/>
</g>
<!-- JwtRefreshStrategy -->
<g id="node11" class="node">
<title>JwtRefreshStrategy</title>
<ellipse fill="#fdb462" stroke="black" cx="111" cy="-66.8" rx="86.83" ry="18"/>
<text text-anchor="middle" x="111" y="-62.6" font-family="Times,serif" font-size="14.00">JwtRefreshStrategy</text>
</g>
<!-- JwtRefreshStrategy&#45;&gt;AuthModule -->
<g id="edge13" class="edge">
<title>JwtRefreshStrategy&#45;&gt;AuthModule</title>
<path fill="none" stroke="black" d="M111,-84.81C111,-110.82 111,-155.8 111,-155.8 111,-155.8 1030.3,-155.8 1030.3,-155.8"/>
<polygon fill="black" stroke="black" points="1030.3,-159.3 1040.3,-155.8 1030.3,-152.3 1030.3,-159.3"/>
</g>
<!-- LocalStrategy -->
<g id="node12" class="node">
<title>LocalStrategy</title>
<ellipse fill="#fdb462" stroke="black" cx="281" cy="-66.8" rx="65.4" ry="18"/>
<text text-anchor="middle" x="281" y="-62.6" font-family="Times,serif" font-size="14.00">LocalStrategy</text>
</g>
<!-- LocalStrategy&#45;&gt;AuthModule -->
<g id="edge15" class="edge">
<title>LocalStrategy&#45;&gt;AuthModule</title>
<path fill="none" stroke="black" d="M281,-85.03C281,-109.73 281,-150.8 281,-150.8 281,-150.8 1030.26,-150.8 1030.26,-150.8"/>
<polygon fill="black" stroke="black" points="1030.26,-154.3 1040.26,-150.8 1030.26,-147.3 1030.26,-154.3"/>
</g>
<!-- MailService -->
<g id="node14" class="node">
<title>MailService</title>
<ellipse fill="#fdb462" stroke="black" cx="1362" cy="-142.8" rx="58.46" ry="18"/>
<text text-anchor="middle" x="1362" y="-138.6" font-family="Times,serif" font-size="14.00">MailService</text>
</g>
<!-- MailService&#45;&gt;MailModule -->
<g id="edge18" class="edge">
<title>MailService&#45;&gt;MailModule</title>
<path fill="none" stroke="black" d="M1303.66,-142.8C1275.05,-142.8 1246.66,-142.8 1246.66,-142.8 1246.66,-142.8 1246.66,-94.81 1246.66,-94.81"/>
<polygon fill="black" stroke="black" points="1250.16,-94.81 1246.66,-84.81 1243.16,-94.81 1250.16,-94.81"/>
</g>
</g>
</svg>
